<svg xmlns="http://www.w3.org/2000/svg" viewBox="0 0 37.51 21.08"><defs><style>.cls-1{fill:none;stroke:#fff;stroke-miterlimit:10;}</style></defs><g id="Layer_2" data-name="Layer 2"><g id="Layer_1-2" data-name="Layer 1"><path class="cls-1" d="M35.62,15.61h-20a.16.16,0,0,1-.09,0l-.64-.27L1.33,9A1.44,1.44,0,0,1,.6,8.22a1.26,1.26,0,0,1,0-1,1.35,1.35,0,0,1,1.26-.82,1.63,1.63,0,0,1,.55.11l13.72,6.42H35.64A1.38,1.38,0,0,1,37,14.26a1.33,1.33,0,0,1-.39,1A1.65,1.65,0,0,1,35.62,15.61Z"/><path class="cls-1" d="M34.33,13.14H15.89l-.09,0L2.7,6.83a.74.74,0,0,1-.4-.67C2.17,4.84,3.69,1.34,4.68.65A.62.62,0,0,1,5.3.54L16.46,6.2H34c.4,0,.55.36.64,1.32.07.71.11,1.67.11,2.67,0,.7,0,1.32-.06,1.79S34.64,13.14,34.33,13.14Z"/><path class="cls-1" d="M.49,15.61h15.7"/><path class="cls-1" d="M3.49,15.58v4.14c0,.47-.23.86-.5.86s-.5-.39-.5-.86V15.58"/><path class="cls-1" d="M34.49,15.58v4.14c0,.47-.23.86-.5.86s-.5-.39-.5-.86V15.58"/></g></g></svg>