<svg xmlns="http://www.w3.org/2000/svg" viewBox="0 0 36.78 21.78"><defs><style>.cls-1{fill:none;stroke:#fff;stroke-miterlimit:10;}.cls-2{fill:#fff;}</style></defs><g id="Layer_2" data-name="Layer 2"><g id="Layer_1-2" data-name="Layer 1"><path class="cls-1" d="M4,17.68v3a.7.7,0,0,1-.76.62.72.72,0,0,1-.76-.62v-3"/><path class="cls-1" d="M33.91,17.68v3a.7.7,0,0,1-.76.62.72.72,0,0,1-.76-.62v-3"/><path class="cls-2" d="M9.56,5.83a.76.76,0,0,0,.76-.77.76.76,0,1,0-1.52,0A.76.76,0,0,0,9.56,5.83Z"/><path class="cls-2" d="M15.32,5.83a.76.76,0,0,0,.76-.77.76.76,0,1,0-1.52,0A.76.76,0,0,0,15.32,5.83Z"/><path class="cls-2" d="M21.05,5.83a.76.76,0,0,0,.76-.77.76.76,0,1,0-1.52,0A.76.76,0,0,0,21.05,5.83Z"/><path class="cls-2" d="M26.79,5.83a.76.76,0,0,0,.76-.77.76.76,0,1,0-1.52,0A.76.76,0,0,0,26.79,5.83Z"/><path class="cls-2" d="M9.56,10.28A.78.78,0,1,0,8.8,9.5.77.77,0,0,0,9.56,10.28Z"/><path class="cls-2" d="M15.32,10.28a.78.78,0,1,0-.76-.78A.77.77,0,0,0,15.32,10.28Z"/><path class="cls-2" d="M21.05,10.28a.78.78,0,1,0-.76-.78A.77.77,0,0,0,21.05,10.28Z"/><path class="cls-2" d="M26.79,10.28A.78.78,0,1,0,26,9.5.77.77,0,0,0,26.79,10.28Z"/><path class="cls-1" d="M35.54,17.68H1.24a.75.75,0,0,1-.74-.76V13.5a.75.75,0,0,1,.74-.76h34.3a.74.74,0,0,1,.74.76v3.44A.74.74,0,0,1,35.54,17.68Z"/><path class="cls-1" d="M31.2.5H5.35A.56.56,0,0,0,4.78,1,3.14,3.14,0,0,1,2.59,3.7a.94.94,0,0,0-.7.91v7.16a.93.93,0,0,0,.93,1H33.91a.93.93,0,0,0,.94-1V4.59a1,1,0,0,0-.67-.91,3.19,3.19,0,0,1-2.09-2.42A.88.88,0,0,0,31.2.5Z"/></g></g></svg>