<svg xmlns="http://www.w3.org/2000/svg" viewBox="0 0 34.06 21.02"><defs><style>.cls-1{fill:none;stroke:#fef4f4;stroke-miterlimit:10;}.cls-2{fill:#fef4f4;}</style></defs><g id="Layer_2" data-name="Layer 2"><g id="Layer_1-2" data-name="Layer 1"><path class="cls-1" d="M30.76,20.52H3.27A2.77,2.77,0,0,1,.5,17.72V3.31A2.78,2.78,0,0,1,3.27.5H30.79a2.79,2.79,0,0,1,2.77,2.81V17.74A2.8,2.8,0,0,1,30.76,20.52Z"/><path class="cls-2" d="M5.76,5.75a.86.86,0,1,0-.85-.85A.85.85,0,0,0,5.76,5.75Z"/><path class="cls-2" d="M5.76,9.14a.85.85,0,0,0,.84-.85.85.85,0,1,0-.84.85Z"/><path class="cls-2" d="M5.76,12.54a.86.86,0,1,0-.85-.86A.85.85,0,0,0,5.76,12.54Z"/><path class="cls-2" d="M5.76,16a.86.86,0,0,0,.84-.86.85.85,0,1,0-1.69,0A.86.86,0,0,0,5.76,16Z"/><path class="cls-2" d="M13.28,5.75a.86.86,0,1,0-.84-.85A.84.84,0,0,0,13.28,5.75Z"/><path class="cls-2" d="M13.28,9.14a.84.84,0,0,0,.84-.85.84.84,0,1,0-1.68,0A.84.84,0,0,0,13.28,9.14Z"/><path class="cls-2" d="M13.28,12.54a.86.86,0,1,0-.84-.86A.84.84,0,0,0,13.28,12.54Z"/><path class="cls-2" d="M13.28,16a.85.85,0,0,0,.84-.86.84.84,0,1,0-1.68,0A.85.85,0,0,0,13.28,16Z"/><path class="cls-2" d="M20.8,5.75A.86.86,0,1,0,20,4.9.85.85,0,0,0,20.8,5.75Z"/><path class="cls-2" d="M20.8,9.14a.85.85,0,0,0,.85-.85.85.85,0,1,0-1.69,0A.85.85,0,0,0,20.8,9.14Z"/><path class="cls-2" d="M20.8,12.54a.86.86,0,1,0-.84-.86A.85.85,0,0,0,20.8,12.54Z"/><path class="cls-2" d="M20.8,16a.86.86,0,0,0,.85-.86.85.85,0,1,0-.85.86Z"/><path class="cls-2" d="M28.33,5.75a.86.86,0,1,0-.85-.85A.85.85,0,0,0,28.33,5.75Z"/><path class="cls-2" d="M28.33,9.14a.85.85,0,0,0,.84-.85.85.85,0,1,0-.84.85Z"/><path class="cls-2" d="M28.33,12.54a.86.86,0,1,0-.85-.86A.85.85,0,0,0,28.33,12.54Z"/><path class="cls-2" d="M28.33,16a.86.86,0,0,0,.84-.86.85.85,0,1,0-1.69,0A.86.86,0,0,0,28.33,16Z"/><path class="cls-2" d="M24.57,7.43a.85.85,0,1,0-.85-.85A.85.85,0,0,0,24.57,7.43Z"/><path class="cls-2" d="M24.57,10.85a.85.85,0,0,0,.84-.85.85.85,0,1,0-.84.85Z"/><path class="cls-2" d="M24.57,14.25a.86.86,0,1,0-.85-.86A.85.85,0,0,0,24.57,14.25Z"/><path class="cls-2" d="M24.57,17.67a.86.86,0,0,0,.84-.86.85.85,0,1,0-1.69,0A.86.86,0,0,0,24.57,17.67Z"/><path class="cls-2" d="M17,7.43a.85.85,0,1,0-.84-.85A.85.85,0,0,0,17,7.43Z"/><path class="cls-2" d="M17,10.85a.85.85,0,0,0,.85-.85.85.85,0,1,0-1.69,0A.85.85,0,0,0,17,10.85Z"/><path class="cls-2" d="M17,14.25a.86.86,0,1,0-.84-.86A.85.85,0,0,0,17,14.25Z"/><path class="cls-2" d="M17,17.67a.86.86,0,0,0,.85-.86.85.85,0,1,0-.85.86Z"/><path class="cls-2" d="M9.52,7.43a.85.85,0,1,0-.85-.85A.85.85,0,0,0,9.52,7.43Z"/><path class="cls-2" d="M9.52,10.85a.85.85,0,0,0,.84-.85.85.85,0,1,0-.84.85Z"/><path class="cls-2" d="M9.52,14.25a.86.86,0,1,0-.85-.86A.85.85,0,0,0,9.52,14.25Z"/><path class="cls-2" d="M9.52,17.67a.86.86,0,0,0,.84-.86.85.85,0,1,0-1.69,0A.86.86,0,0,0,9.52,17.67Z"/></g></g></svg>