<svg xmlns="http://www.w3.org/2000/svg" xmlns:xlink="http://www.w3.org/1999/xlink" viewBox="0 0 56.78 52.61"><defs><style>.cls-1,.cls-3,.cls-4,.cls-5{fill:none;}.cls-2{clip-path:url(#clip-path);}.cls-3,.cls-4,.cls-5{stroke:#000;stroke-miterlimit:10;}.cls-3{stroke-width:0.79px;}.cls-4,.cls-5{stroke-linecap:round;}.cls-4{stroke-width:1.57px;}.cls-5{stroke-width:3.14px;}</style><clipPath id="clip-path"><rect class="cls-1" width="56.78" height="52.54"/></clipPath></defs><g id="Layer_2" data-name="Layer 2"><g id="Layer_1-2" data-name="Layer 1"><g class="cls-2"><path d="M25.21.19c.84,0,1.42.4,1.45,1.24a.05.05,0,0,0,0,.05.43.43,0,0,1,.31.44c0,2.16-.07,16-.07,16a.21.21,0,0,1-.13.19l-.16.08v.34s0,0,0,0l23,11.31h.06l3.27-1.61a3.32,3.32,0,0,1,1.43-.34,1.59,1.59,0,0,1,1.71,1,.63.63,0,0,1,.3.51l.06,7.41a.33.33,0,0,1-.19.29l-.09,0a.05.05,0,0,0,0,0c0,.68,0,1.58-.07,2.34a2.3,2.3,0,0,1-1.46,1.62L32.44,52.1a2.16,2.16,0,0,1-.92.25c-1.77,0-1.58-3.51-1.56-3.86a.05.05,0,0,0,0-.05L5.23,36.33H5.17a8.44,8.44,0,0,1-3.21,1A1.56,1.56,0,0,1,.24,35.5c0-2.25,0-15.47,0-21a3.77,3.77,0,0,1,2.47-3.65L23.32.7A4.37,4.37,0,0,1,25.21.19Zm0-.19a4.64,4.64,0,0,0-2,.53L2.58,10.65A4,4,0,0,0,0,14.47C0,16.36,0,33,0,35.5a1.76,1.76,0,0,0,1.94,2,8.37,8.37,0,0,0,3.24-.94l24.53,12c0,.61-.07,2.78.86,3.62a1.38,1.38,0,0,0,.93.35,2.25,2.25,0,0,0,1-.28l17.11-8.39,5.17-2.53c1-.47,1.51-1.1,1.56-1.77s.07-1.63.07-2.27h0a.53.53,0,0,0,.31-.46l-.06-7.41a.85.85,0,0,0-.32-.61,1.85,1.85,0,0,0-1.92-1.13,3.52,3.52,0,0,0-1.54.37l-3.19,1.56L26.86,18.4v-.15l.05,0a.41.41,0,0,0,.25-.36c0-.14.05-13.82.06-15.95a.62.62,0,0,0-.34-.58A1.47,1.47,0,0,0,25.21,0Z"/><path class="cls-3" d="M26.71,1.46c-.3-1.33-2.68.1-4.64,1C15.89,5.53,4.92,11,4,11.45c-1.52.74-2.51,1.32-2.47,3.88,0,2.14-.08,19.88-.08,20.36,0,.75.59,2.17,2.49,1.23"/><path class="cls-3" d="M2.8,30.23l-.9.45"/><path class="cls-3" d="M26.71,18.16l-25,12.2s.1-13.68.14-15.1a3.47,3.47,0,0,1,2.17-3.49l18.45-9c2.09-.94,3.44-1.91,4.32-1.22"/><path class="cls-3" d="M1.49,30.45,30,44.41"/><path class="cls-3" d="M1.9,30.68,26.71,18.47l-.9.44L48.93,30.25"/><path class="cls-3" d="M2.35,30.06l-.86.39"/><path class="cls-3" d="M2.8,30.23,30,43.6"/><path class="cls-4" d="M29.91,40.94l-2.7,1.32"/><path class="cls-4" d="M46.28,31.05l-21,10.28"/><path class="cls-4" d="M44.37,30.12l-21,10.27"/><path class="cls-4" d="M42.47,29.17l-21,10.28"/><path class="cls-4" d="M40.57,28.22l-21,10.28"/><path class="cls-4" d="M38.63,27.31l-21,10.27"/><path class="cls-4" d="M36.74,26.35l-21,10.28"/><path class="cls-4" d="M34.85,25.42l-21,10.27"/><path class="cls-4" d="M33,24.46,12,34.74"/><path class="cls-4" d="M31.11,23.55l-21,10.27"/><path class="cls-4" d="M29.25,22.66l-21,10.27"/><path class="cls-4" d="M27.39,21.71,6.41,32"/><path class="cls-4" d="M30,42.79l-.78.43"/><path class="cls-5" d="M16.06,25.42,37.31,35.88"/><path class="cls-3" d="M56.39,37.14,31.49,49.33l-.23,0"/><path class="cls-3" d="M56.24,28.87s-.28-.93-2.39.09c-5.25,2.55-19.77,9.68-20.79,10.21-1.27.64-1.71,1.32-1.73,3.62,0,.59-.08,7.28-.08,7.28s0,2.7,1.39,2"/><path class="cls-3" d="M31.49,49.33s.1-5.21.12-6.59.1-2.52,1.59-3.38c2.3-1.18,20.26-9.95,20.79-10.2,1.33-.64,1.77-.58,2.33-.2"/><path class="cls-3" d="M31.49,51.53s22.27-10.87,22.58-11a1.62,1.62,0,0,0,1.06-1.2,4.37,4.37,0,0,0,.06-1.59"/><path class="cls-3" d="M5.22,36.44l-3.77-2"/><path class="cls-5" d="M20.08,27.45v3"/><path class="cls-5" d="M36.74,35.6v.56"/><path class="cls-5" d="M27.39,31.15v3"/><path class="cls-3" d="M29.93,49.27s0-6.75,0-8.1a2.58,2.58,0,0,1,1.64-2.43l18.15-8.9"/><path class="cls-3" d="M25.81,18.91l.05,3.22,19.77,9.74"/><path class="cls-3" d="M1.77,36.7A7.63,7.63,0,0,0,4,35.78"/><path class="cls-3" d="M24.67,26.7c1.57-.77,1.94-.93,2-2.7V22.52"/><path class="cls-3" d="M8.81,33.19S22.87,26.42,24,25.86s1.55-.62,1.62-2.07c0-.13,0-.29,0-.44l-.09-4.27"/><path class="cls-3" d="M15.62,24v1.72L16.9,25V23.32"/><path class="cls-3" d="M4.49,31.07l21-10.22"/></g></g></g></svg>