<svg xmlns="http://www.w3.org/2000/svg" viewBox="0 0 43.96 74.11"><defs><style>.cls-1{fill:#191818;}</style></defs><g id="Layer_2" data-name="Layer 2"><g id="Layer_1-2" data-name="Layer 1"><path class="cls-1" d="M16.16,43.61h8.35c2.88,0,4.7-1.76,4.7-4.49,0-3.27-2.63-4.18-5.44-4.18H16.16Zm0-11.47h6.67c3.79,0,5.33-1.37,5.33-4,0-3.47-2.45-4-5.33-4H16.16ZM12.83,21.37h9.09c2.21,0,5.12,0,6.63.91a6,6,0,0,1,2.94,5.23,5.79,5.79,0,0,1-3.72,5.61v.07a5.74,5.74,0,0,1,4.77,6c0,3.68-2.63,7.19-7.61,7.19H12.83Z"/><path class="cls-1" d="M22,12A21.94,21.94,0,1,0,44,33.89,21.94,21.94,0,0,0,22,12Zm19.05,22a19,19,0,1,1-19-19A19,19,0,0,1,41.06,33.9Z"/><path class="cls-1" d="M.12,63.34H43.91V60.46H.12Z"/><path class="cls-1" d="M41.35,56.86a1.37,1.37,0,0,1,.29-.42,1.51,1.51,0,0,1,.42-.27,1.24,1.24,0,0,1,.5-.1,1.3,1.3,0,0,1,.52.1,1.62,1.62,0,0,1,.41.27,1.34,1.34,0,0,1,.28.42,1.23,1.23,0,0,1,.11.51,1.27,1.27,0,0,1-.11.52,1.34,1.34,0,0,1-.28.42,1.22,1.22,0,0,1-.41.27,1.3,1.3,0,0,1-.52.1,1.24,1.24,0,0,1-.5-.1,1.17,1.17,0,0,1-.42-.27,1.37,1.37,0,0,1-.29-.42,1.27,1.27,0,0,1-.1-.52A1.22,1.22,0,0,1,41.35,56.86Zm.22,1a1,1,0,0,0,.23.36,1,1,0,0,0,.34.24,1.16,1.16,0,0,0,.42.08,1,1,0,0,0,.77-.32,1.11,1.11,0,0,0,.23-.36,1.23,1.23,0,0,0,.08-.44,1.27,1.27,0,0,0-.08-.44,1.18,1.18,0,0,0-.23-.35,1.13,1.13,0,0,0-.34-.23,1,1,0,0,0-.43-.09,1,1,0,0,0-.42.09,1.06,1.06,0,0,0-.57.58,1.08,1.08,0,0,0-.08.44A1,1,0,0,0,41.57,57.81Zm1.08-1.2a.64.64,0,0,1,.4.11.39.39,0,0,1,.13.33.38.38,0,0,1-.11.3.58.58,0,0,1-.29.12l.44.67H43l-.42-.66h-.25v.66h-.24V56.61Zm-.11.68h.16l.12,0a.24.24,0,0,0,.09-.08.26.26,0,0,0,0-.14.21.21,0,0,0,0-.12.16.16,0,0,0-.07-.07l-.11,0h-.44v.48Z"/><path class="cls-1" d="M5.43,2.3A2.32,2.32,0,0,0,5,1.86a1.94,1.94,0,0,0-.53-.29,1.84,1.84,0,0,0-.62-.11,2,2,0,0,0-1,.23,1.88,1.88,0,0,0-.67.61,2.82,2.82,0,0,0-.37.87,4.23,4.23,0,0,0-.12,1,3.91,3.91,0,0,0,.12,1A2.61,2.61,0,0,0,2.23,6a2,2,0,0,0,.67.61,2,2,0,0,0,1,.22,1.59,1.59,0,0,0,1.25-.49,2.25,2.25,0,0,0,.55-1.28H7.38A4.07,4.07,0,0,1,7,6.4a3.16,3.16,0,0,1-.73,1,3,3,0,0,1-1.06.64,3.9,3.9,0,0,1-1.35.23A4.05,4.05,0,0,1,2.26,8,3.52,3.52,0,0,1,1,7.1,4,4,0,0,1,.27,5.8,4.75,4.75,0,0,1,0,4.18,4.92,4.92,0,0,1,.27,2.53,4.11,4.11,0,0,1,1,1.21,3.57,3.57,0,0,1,2.26.32,4.05,4.05,0,0,1,3.89,0,3.88,3.88,0,0,1,5.13.19a3.14,3.14,0,0,1,1,.55,3,3,0,0,1,.76.89,3.18,3.18,0,0,1,.38,1.22H5.62A1.34,1.34,0,0,0,5.43,2.3Z"/><path class="cls-1" d="M11.43,3.72a1.1,1.1,0,0,0-.86-.31,1.48,1.48,0,0,0-.63.12,1.28,1.28,0,0,0-.4.32,1.19,1.19,0,0,0-.21.4,1.92,1.92,0,0,0-.07.38h2.56A1.75,1.75,0,0,0,11.43,3.72Zm-1.78,3a1.39,1.39,0,0,0,1,.35,1.39,1.39,0,0,0,.82-.24,1,1,0,0,0,.42-.51H13.3a2.68,2.68,0,0,1-1,1.48,3.08,3.08,0,0,1-1.67.44A3.4,3.4,0,0,1,9.39,8a2.58,2.58,0,0,1-.92-.62,2.86,2.86,0,0,1-.58-1,3.43,3.43,0,0,1-.21-1.22,3.37,3.37,0,0,1,.22-1.2,2.72,2.72,0,0,1,1.52-1.6,3.08,3.08,0,0,1,1.19-.23,2.72,2.72,0,0,1,1.28.28,2.53,2.53,0,0,1,.89.76,3.31,3.31,0,0,1,.51,1.09,4.1,4.1,0,0,1,.11,1.27H9.26A1.57,1.57,0,0,0,9.65,6.73Z"/><path class="cls-1" d="M15.6,2.37V3.44h0a1.66,1.66,0,0,1,.3-.49,1.59,1.59,0,0,1,.43-.39,1.92,1.92,0,0,1,.52-.25,1.85,1.85,0,0,1,.58-.09,1.55,1.55,0,0,1,.34,0V3.74l-.27,0-.3,0a1.64,1.64,0,0,0-.73.15,1.15,1.15,0,0,0-.48.39,1.61,1.61,0,0,0-.26.58,3.31,3.31,0,0,0-.08.72V8.11H14.11V2.37Z"/><path class="cls-1" d="M22,2.37V3.43H20.86V6.27A.83.83,0,0,0,21,6.8a.79.79,0,0,0,.54.13h.25l.24,0V8.11l-.45,0h-.48a3.87,3.87,0,0,1-.69-.05,1.53,1.53,0,0,1-.58-.19,1.1,1.1,0,0,1-.39-.41,1.43,1.43,0,0,1-.14-.7V3.43h-1V2.37h1V.65h1.57V2.37Z"/><path class="cls-1" d="M22.93,8.11h1.58V2.37H22.93Zm0-6.62h1.58V.19H22.93Z"/><path class="cls-1" d="M25.13,3.43V2.37h.94V1.93A1.7,1.7,0,0,1,26.55.68,1.92,1.92,0,0,1,28,.19a3.17,3.17,0,0,1,.43,0l.4,0V1.41a5.17,5.17,0,0,0-.57,0,.59.59,0,0,0-.46.15.73.73,0,0,0-.14.5v.34h1.09V3.43H27.65V8.11H26.07V3.43Z"/><path class="cls-1" d="M29.8,8.11h1.58V2.37H29.8Zm0-6.62h1.58V.19H29.8Z"/><path class="cls-1" d="M35.64,3.72a1.09,1.09,0,0,0-.86-.31,1.4,1.4,0,0,0-.62.12,1.18,1.18,0,0,0-.61.72,1.4,1.4,0,0,0-.07.38H36A1.83,1.83,0,0,0,35.64,3.72Zm-1.78,3a1.42,1.42,0,0,0,1,.35,1.39,1.39,0,0,0,.82-.24,1.05,1.05,0,0,0,.43-.51h1.38a2.63,2.63,0,0,1-1,1.48,3,3,0,0,1-1.66.44A3.36,3.36,0,0,1,33.61,8a2.58,2.58,0,0,1-.92-.62,2.88,2.88,0,0,1-.59-1,3.67,3.67,0,0,1-.2-1.22,3.36,3.36,0,0,1,.21-1.2,2.79,2.79,0,0,1,.6-1,2.91,2.91,0,0,1,.93-.64,3,3,0,0,1,1.19-.23,2.67,2.67,0,0,1,1.27.28,2.56,2.56,0,0,1,.9.76,3.11,3.11,0,0,1,.5,1.09,4.1,4.1,0,0,1,.11,1.27H33.48A1.62,1.62,0,0,0,33.86,6.73Z"/><path class="cls-1" d="M42.33,4.54A1.62,1.62,0,0,0,42.1,4a1.27,1.27,0,0,0-.42-.41A1.24,1.24,0,0,0,41,3.41a1.28,1.28,0,0,0-.65.15A1.13,1.13,0,0,0,40,4a1.64,1.64,0,0,0-.23.58,3.1,3.1,0,0,0-.08.69,3,3,0,0,0,.08.66,1.84,1.84,0,0,0,.25.59,1.36,1.36,0,0,0,.43.43,1.28,1.28,0,0,0,.63.16,1.21,1.21,0,0,0,.65-.16,1.15,1.15,0,0,0,.41-.41,2,2,0,0,0,.23-.6,3.94,3.94,0,0,0,0-1.37Zm.06,2.84a1.6,1.6,0,0,1-.72.67,2.54,2.54,0,0,1-1,.2A2.38,2.38,0,0,1,39.52,8a2.18,2.18,0,0,1-.8-.67,3,3,0,0,1-.48-1,4,4,0,0,1-.16-1.15,3.77,3.77,0,0,1,.16-1.11,2.75,2.75,0,0,1,.48-1,2.2,2.2,0,0,1,.79-.66,2.47,2.47,0,0,1,2.08,0,1.66,1.66,0,0,1,.72.64h0V.19h1.57V8.11h-1.5V7.38Z"/><path class="cls-1" d="M4,69a1.21,1.21,0,0,0-1.22-1c-1.1,0-1.51.94-1.51,1.92s.41,1.86,1.51,1.86A1.26,1.26,0,0,0,4,70.54H5.19a2.35,2.35,0,0,1-2.45,2.29,2.93,2.93,0,0,1,0-5.85,2.27,2.27,0,0,1,2.41,2Z"/><path class="cls-1" d="M7.75,72c.76,0,1-.65,1-1.29s-.23-1.3-1-1.3-1,.65-1,1.3S7,72,7.75,72Zm0-3.42a2.13,2.13,0,0,1,0,4.25,2.13,2.13,0,0,1,0-4.25Z"/><path class="cls-1" d="M10.53,68.65h1.05v.75h0a1.42,1.42,0,0,1,1.29-.86.64.64,0,0,1,.24,0v1a2.25,2.25,0,0,0-.4,0c-.81,0-1.09.59-1.09,1.3v1.82H10.53Z"/><path class="cls-1" d="M16.56,70.69c0-.65-.25-1.31-1-1.31s-1,.65-1,1.31.25,1.28,1,1.28S16.56,71.34,16.56,70.69Zm-3-2h1v.51h0a1.33,1.33,0,0,1,1.2-.62c1.26,0,1.83,1,1.83,2.17A1.86,1.86,0,0,1,15.9,72.8a1.44,1.44,0,0,1-1.21-.61h0v1.92h-1.1Z"/><path class="cls-1" d="M20.11,72c.76,0,1-.65,1-1.29s-.22-1.3-1-1.3-1,.65-1,1.3S19.36,72,20.11,72Zm0-3.42a2.13,2.13,0,0,1,0,4.25,2.13,2.13,0,0,1,0-4.25Z"/><path class="cls-1" d="M22.89,68.65h1.05v.75h0a1.42,1.42,0,0,1,1.29-.86.67.67,0,0,1,.24,0v1a2.35,2.35,0,0,0-.4,0c-.81,0-1.09.59-1.09,1.3v1.82H22.89Z"/><path class="cls-1" d="M28.38,70.72a2.26,2.26,0,0,1-.93.23c-.34.07-.65.19-.65.59s.32.52.68.52a.83.83,0,0,0,.9-.93Zm-2.57-.82c.07-1,1-1.35,1.9-1.35s1.77.18,1.77,1.14v2.1a1.92,1.92,0,0,0,.15.9H28.5a1.59,1.59,0,0,1-.08-.39,1.83,1.83,0,0,1-1.36.5c-.76,0-1.37-.38-1.37-1.21s.69-1.13,1.37-1.22,1.32-.08,1.32-.54-.33-.54-.72-.54-.7.17-.74.61Z"/><path class="cls-1" d="M31.72,68.66h.82v.74h-.82v2c0,.37.1.46.47.46a1.38,1.38,0,0,0,.35,0v.87a4.45,4.45,0,0,1-.65,0c-.68,0-1.27-.16-1.27-1V69.4h-.68v-.74h.68V67.44h1.1Z"/><path class="cls-1" d="M33.37,72.69h1.11v-4H33.37Zm0-4.66h1.11v-.91H33.37Z"/><path class="cls-1" d="M37.31,72c.76,0,1-.65,1-1.29s-.23-1.3-1-1.3-1,.65-1,1.3S36.56,72,37.31,72Zm0-3.42a2.13,2.13,0,1,1-2.08,2.13A2,2,0,0,1,37.31,68.55Z"/><path class="cls-1" d="M40.12,68.66h1.06v.56h0a1.43,1.43,0,0,1,1.24-.67c1.18,0,1.47.66,1.47,1.66v2.48H42.8V70.41c0-.66-.19-1-.71-1s-.86.34-.86,1.16v2.11H40.12Z"/></g></g></svg>