<svg xmlns="http://www.w3.org/2000/svg" viewBox="0 0 68 8"><defs><style>.cls-1{fill:#1a1a1a;}</style></defs><g id="Layer_2" data-name="Layer 2"><g id="Layer_1-2" data-name="Layer 1"><path class="cls-1" d="M19.69.26H18.31V7.84H23V7.18H19.69Z"/><path class="cls-1" d="M24.4.91h2.25V7.84H28V.91h2.36V.28h-6Z"/><path class="cls-1" d="M40,.9h3.25V.28H38.64V7.84H40V4.39h3.26V3.74H40Z"/><path class="cls-1" d="M47.82.26H46.45V7.84h4.71V7.18H47.82Z"/><path class="cls-1" d="M62,.28V.91h2.26V7.84h1.37V.91H68V.28Z"/><path class="cls-1" d="M5.58,5.48A2.72,2.72,0,0,1,2.72,8,4,4,0,0,1,0,7l.26-.47a3.66,3.66,0,0,0,2.23.82c1.09,0,1.75-.49,1.75-1.31s-.9-1.31-1.86-1.71S.26,3.45.26,2.24A2.46,2.46,0,0,1,3,0,3.26,3.26,0,0,1,5.21.74L5,1.25A2.83,2.83,0,0,0,3.14.64c-.91,0-1.5.43-1.5,1.11S2.45,2.82,3.3,3.17C4.37,3.6,5.58,4.08,5.58,5.48Z"/><path class="cls-1" d="M14.44,5.47l-.21-.58L12.55.23H11.34l-.12.34L9.63,4.89h-2v.58H9.42L8.58,7.76h.69l.11-.29.73-2H13l.83,2.29h1.45Zm-4.12-.58,0-.11.08-.23,1-2.78.1-.27,1.23,3.4H10.32Z"/><path class="cls-1" d="M54.75,4.61l0,0v0l-.1.27-.21.58-.84,2.29h.69l.27-.75L55,5.73l.07-.2.13-.36v0l0,0a1.59,1.59,0,0,0,.36.23,3.24,3.24,0,0,0,.62.21,1.86,1.86,0,0,0,.7,0,.86.86,0,0,0,.27,0,2,2,0,0,0,.49-.19l0,0,.12-.07.11.29.82,2.29h1.46l-.83-2.29L59.22,5,57.53.3h-1.2L55.08,3.69v0l0,0-.27-.16a2.27,2.27,0,0,0-1.15-.24,2.38,2.38,0,0,0-1,.31l-.3.19.33.36A1.58,1.58,0,0,1,54.75,4.61Zm2.78.19a1.18,1.18,0,0,1-1,0,3.33,3.33,0,0,1-.48-.28l-.43-.32,0,0h0l0,0v0l.82-2.23.1-.28,1.15,3.17Z"/></g></g></svg>