<svg xmlns="http://www.w3.org/2000/svg" viewBox="0 0 53.03 49.16"><defs><style>.cls-1{opacity:0.4;}.cls-2,.cls-3,.cls-4{fill:none;stroke:#000;stroke-miterlimit:10;}.cls-2{stroke-width:0.79px;}.cls-3,.cls-4{stroke-linecap:round;}.cls-3{stroke-width:1.57px;}.cls-4{stroke-width:3.14px;}</style></defs><g id="Layer_2" data-name="Layer 2"><g id="Layer_1-2" data-name="Layer 1"><g class="cls-1"><path d="M23.55.18c.78,0,1.32.37,1.35,1.16,0,0,0,0,0,0a.39.39,0,0,1,.28.42c0,2-.06,14.89-.06,14.89a.2.2,0,0,1-.12.18l-.15.07v.32l0,0L46.44,27.86h.05l3.06-1.5A3,3,0,0,1,50.88,26a1.49,1.49,0,0,1,1.6,1,.6.6,0,0,1,.28.48l.06,6.92a.32.32,0,0,1-.18.27l-.09,0a.05.05,0,0,0,0,0c0,.63,0,1.47-.07,2.18a2.14,2.14,0,0,1-1.36,1.52L30.3,48.66a2,2,0,0,1-.86.23c-1.65,0-1.48-3.27-1.46-3.61a.05.05,0,0,0,0,0L4.88,33.93h0a8,8,0,0,1-3,.88,1.45,1.45,0,0,1-1.6-1.65c0-2.1,0-14.46,0-19.64a3.53,3.53,0,0,1,2.3-3.42L21.78.65A4.18,4.18,0,0,1,23.55.18Zm0-.18a4.3,4.3,0,0,0-1.87.5L2.41,10A3.69,3.69,0,0,0,0,13.52c0,1.76,0,17.26,0,19.64A1.64,1.64,0,0,0,1.83,35a7.92,7.92,0,0,0,3-.87L27.77,45.36c0,.58-.07,2.59.8,3.38a1.28,1.28,0,0,0,.87.33,2.2,2.2,0,0,0,1-.26l16-7.83,4.82-2.37c.9-.44,1.42-1,1.47-1.65s.06-1.53.07-2.12h0a.47.47,0,0,0,.29-.42L53,27.49a.77.77,0,0,0-.3-.58,1.71,1.71,0,0,0-1.79-1,3.24,3.24,0,0,0-1.44.34l-3,1.46L25.09,17.18v-.13l0,0a.37.37,0,0,0,.23-.34c0-.13.05-12.9.06-14.89a.57.57,0,0,0-.32-.55A1.36,1.36,0,0,0,23.55,0Z"/><path class="cls-2" d="M24.94,1.36c-.28-1.24-2.5.1-4.33,1-5.77,2.81-16,7.92-16.88,8.34-1.41.7-2.34,1.24-2.3,3.63,0,2-.07,18.56-.07,19,0,.71.54,2,2.32,1.16"/><path class="cls-2" d="M2.61,28.24l-.84.41"/><path class="cls-2" d="M24.94,17,1.63,28.35s.09-12.77.12-14.09a3.25,3.25,0,0,1,2-3.27L21,2.54C23,1.66,24.22.75,25,1.4"/><path class="cls-2" d="M1.4,28.44,28,41.48"/><path class="cls-2" d="M1.77,28.65l23.17-11.4-.83.41L45.7,28.25"/><path class="cls-2" d="M2.19,28.07l-.79.37"/><path class="cls-2" d="M2.61,28.24,28,40.72"/><path class="cls-3" d="M27.93,38.24l-2.52,1.23"/><path class="cls-3" d="M43.22,29l-19.6,9.6"/><path class="cls-3" d="M41.44,28.13l-19.6,9.59"/><path class="cls-3" d="M39.67,27.24l-19.6,9.6"/><path class="cls-3" d="M37.89,26.36,18.29,36"/><path class="cls-3" d="M36.08,25.5l-19.6,9.6"/><path class="cls-3" d="M34.31,24.61l-19.6,9.6"/><path class="cls-3" d="M32.55,23.74,13,33.34"/><path class="cls-3" d="M30.82,22.85l-19.6,9.6"/><path class="cls-3" d="M29.06,22l-19.6,9.6"/><path class="cls-3" d="M27.32,21.16l-19.6,9.6"/><path class="cls-3" d="M25.58,20.27,6,29.87"/><path class="cls-3" d="M28,40l-.73.4"/><path class="cls-4" d="M15,23.74l19.85,9.77"/><path class="cls-2" d="M52.66,34.69,29.41,46.07l-.22,0"/><path class="cls-2" d="M52.53,27s-.26-.87-2.24.09c-4.9,2.38-18.46,9-19.42,9.53-1.18.6-1.59,1.23-1.61,3.38,0,.55-.07,6.8-.07,6.8s0,2.53,1.29,1.91"/><path class="cls-2" d="M29.41,46.07s.09-4.86.12-6.15.09-2.36,1.48-3.16c2.15-1.1,18.92-9.29,19.41-9.53,1.25-.59,1.66-.54,2.18-.18"/><path class="cls-2" d="M29.41,48.12S50.21,38,50.5,37.85a1.56,1.56,0,0,0,1-1.13,4.25,4.25,0,0,0,.06-1.49"/><path class="cls-2" d="M4.88,34,1.36,32.2"/><path class="cls-4" d="M18.76,25.64v2.82"/><path class="cls-4" d="M34.31,33.25l0,.52"/><path class="cls-4" d="M25.58,29.09v2.82"/><path class="cls-2" d="M28,46s0-6.3,0-7.56a2.39,2.39,0,0,1,1.54-2.26l17-8.32"/><path class="cls-2" d="M24.11,17.66l0,3,18.46,9.09"/><path class="cls-2" d="M1.66,34.28a7.19,7.19,0,0,0,2-.86"/><path class="cls-2" d="M23,24.94c1.47-.72,1.81-.87,1.85-2.52V21"/><path class="cls-2" d="M8.23,31s13.13-6.33,14.14-6.85,1.45-.58,1.51-1.93c0-.12,0-.27,0-.42l-.08-4"/><path class="cls-2" d="M14.58,22.37V24l1.2-.58V21.78"/><path class="cls-2" d="M4.2,29l19.64-9.55"/></g></g></g></svg>