<svg xmlns="http://www.w3.org/2000/svg" viewBox="0 0 144 144"><defs><style>.cls-1{fill:none;stroke:#8c846e;}.cls-2{fill:#a09885;}</style></defs><g id="Layer_2" data-name="Layer 2"><g id="Layer_1-2" data-name="Layer 1"><circle class="cls-1" cx="72" cy="72" r="71.5"/><path class="cls-2" d="M64.3,59.59h.79l1.81-9.32,1.52-.48.1-.52-3.68,0-.1.51,1.35.45-1.27,6.45h-.19L61.77,51,61,49.33l-3.15,0-.11.52,1.33.43-1.61,8.27L56,59.06l-.11.51,3.68,0,.11-.51-1.33-.45L59.79,51H60l3.59,7Zm5.33-4.06c.34-1.73,1.29-3,2.38-3a1,1,0,0,1,1,1C73,55,71.76,55.73,69.63,55.53Zm-.06.53c3,.1,4.7-.78,4.69-2.48,0-.93-.79-1.59-2-1.58-2.42,0-4.13,2.84-4.11,5a2.5,2.5,0,0,0,2.69,2.65A3.41,3.41,0,0,0,73.72,58l-.3-.22a2.88,2.88,0,0,1-1.93.85C70,58.64,69.41,57.58,69.57,56.06Zm6,3.54c.72,0,1.27-.54,2.62-3h.18c.62,2.38.91,2.87,1.8,2.87a2.68,2.68,0,0,0,1.55-.87l-.08-.27c-1.09.16-1.3.08-1.59-.59a16.13,16.13,0,0,1-.83-2.27A11.35,11.35,0,0,1,81,53.07a1,1,0,0,0,.79.42.85.85,0,0,0,.82-.85.76.76,0,0,0-.87-.76c-.77,0-1.31.51-2.64,2.89l-.13,0c-.71-2.46-1-2.81-1.84-2.8a2.93,2.93,0,0,0-1.59.85l.1.29c1.06-.17,1.28-.05,1.61.61a15.49,15.49,0,0,1,.83,2.2,11.51,11.51,0,0,1-1.88,2.48.94.94,0,0,0-.77-.38.84.84,0,0,0-.82.86C74.62,59.29,75,59.6,75.54,59.6ZM85,59.43a4.93,4.93,0,0,0,2.32-.76v-.32a8.65,8.65,0,0,1-1,.06,1.87,1.87,0,0,1-1.09-.18C85,58,85,57.62,85.1,57.06L86,53l2,0,.17-.81-2,0,.43-2-.72-.14-.75,1.68-1.5.92-.07.39,1.18,0-1,4.73C83.43,58.92,83.92,59.44,85,59.43ZM47.12,78.9a6.86,6.86,0,0,0,3.07-.7l.6-2.33-.32-.11L48.55,78a3.62,3.62,0,0,1-1.24.2c-1.83,0-3.1-1.28-3.13-3.59,0-3.31,2-5.76,4-5.78,1.43,0,2.35.88,2.83,2.82l.48,0,.64-3.43h-.47l-.74.69a5.24,5.24,0,0,0-2.68-.68c-3.17,0-5.78,3-5.75,6.34C42.53,77.34,44.43,78.92,47.12,78.9Zm7.33-.15c1,0,1.57-.62,2.44-1.58l.16,0c-.2,1,.06,1.52.8,1.51A4,4,0,0,0,59.7,78l0-.27c-1.44.06-1.57-.11-1.44-.67l1.33-6.32-.36-.12-.75.93a2.08,2.08,0,0,0-1.37-.45c-2.08,0-4.58,3-4.56,5.47A1.91,1.91,0,0,0,54.45,78.75Zm.63-1.06c-.65,0-1.18-.44-1.19-1.53C53.87,74,55.16,72,56.6,72a1.75,1.75,0,0,1,1.3.69l-.76,3.66C56.17,77.32,55.68,77.68,55.08,77.69Zm7.51,1a4.93,4.93,0,0,0,2.33-.76v-.32a8.8,8.8,0,0,1-1,.06,1.87,1.87,0,0,1-1.09-.18c-.29-.22-.28-.61-.15-1.17l.85-4,2,0,.16-.82-2,0,.43-2-.72-.14-.75,1.67-1.5.93-.07.38h1.18L61.3,77C61.05,78.13,61.54,78.65,62.59,78.64Zm5.19-4.1c.34-1.73,1.29-3,2.37-3a1,1,0,0,1,1,1C71.17,74,69.91,74.75,67.78,74.54Zm-.06.53c3,.1,4.7-.78,4.68-2.47,0-.93-.78-1.6-2-1.58-2.42,0-4.13,2.83-4.11,5A2.51,2.51,0,0,0,69,78.63,3.41,3.41,0,0,0,71.87,77l-.31-.22a2.84,2.84,0,0,1-1.92.85C68.13,77.66,67.56,76.59,67.72,75.07Zm8.06,6.81c1.81,0,3.51-1,3.5-2.5,0-1.09-1-1.8-3.06-2.26-.53-.1-.6-.31-.46-1.05a2.15,2.15,0,0,0,.51,0,3.08,3.08,0,0,0,3.28-3,2,2,0,0,0-.44-1.24l1-.4c.11.42.34.69.68.68a.71.71,0,0,0,.69-.82.73.73,0,0,0-.81-.73,2.89,2.89,0,0,0-1.7,1.08A2.69,2.69,0,0,0,77,71a3.21,3.21,0,0,0-3.29,3,2,2,0,0,0,1.33,1.89l-.43,1.76c-1.59.53-2.45,1.31-2.44,2.3C72.19,81.1,73.89,81.9,75.78,81.88Zm.6-6.22c-.8,0-1.34-.56-1.35-1.65a3.08,3.08,0,0,1,.75-2.1,1.53,1.53,0,0,1,1.1-.49c.83,0,1.35.52,1.36,1.57a3.14,3.14,0,0,1-.76,2.17A1.6,1.6,0,0,1,76.38,75.66Zm-.46,5.66c-1.33,0-2.44-.54-2.45-1.56A2.09,2.09,0,0,1,74.8,78c2.48.43,3.29,1,3.3,1.78S77.18,81.31,75.92,81.32Zm7.63-2.83c2.51,0,4.32-2.63,4.3-4.95a2.42,2.42,0,0,0-2.49-2.66c-2.51,0-4.32,2.63-4.3,5A2.42,2.42,0,0,0,83.55,78.49Zm.55-.74c-1,0-1.62-.86-1.64-2.27,0-1.73.88-3.85,2.35-3.86,1,0,1.62.86,1.64,2.27C86.46,75.62,85.57,77.74,84.1,77.75Zm5,.52h1.26l1-4.81A5.46,5.46,0,0,1,93,72a1.34,1.34,0,0,0,1,.55.9.9,0,0,0,.87-.92.83.83,0,0,0-.94-.85c-.8,0-1.5.73-2.33,1.86l-.16,0,.38-1.73-.13-.13-2.61.86,0,.38,1.31.34Zm6.48,3.44a2.62,2.62,0,0,0,1.66-.86c1.92-1.65,3.81-6.44,5.41-9.59l-1.29-.63h-.06c-.36,1.33-1.08,3.87-1.9,6h-.15a24.84,24.84,0,0,0-.88-4.74c-.25-.85-.6-1.12-1.21-1.11a2.69,2.69,0,0,0-1.75,1.13l.13.28a2.66,2.66,0,0,1,.78-.19c.4,0,.61.14.86.84a31.53,31.53,0,0,1,1.16,5.72A6,6,0,0,1,96.07,81c0-.8-.27-1.42-.83-1.41a.88.88,0,0,0-.82,1A1.1,1.1,0,0,0,95.58,81.71Z"/><path class="cls-2" d="M92.35,99.35a.48.48,0,0,0,0-.7l-3.18-3.19a.5.5,0,0,0-.71.71L91.29,99l-2.83,2.83a.5.5,0,0,0,.71.71ZM54,99.5H92v-1H54Z"/></g></g></svg>