<svg xmlns="http://www.w3.org/2000/svg" viewBox="0 0 23 23"><defs><style>.cls-1{fill-rule:evenodd;}</style></defs><g id="Layer_2" data-name="Layer 2"><g id="Layer_1-2" data-name="Layer 1"><path class="cls-1" d="M21.73,1.27a4.11,4.11,0,0,0-3-1.27H4.31a4.11,4.11,0,0,0-3,1.27A4.11,4.11,0,0,0,0,4.31V18.69a4.11,4.11,0,0,0,1.27,3,4.11,4.11,0,0,0,3,1.27H18.69A4.34,4.34,0,0,0,23,18.69V4.31A4.11,4.11,0,0,0,21.73,1.27ZM7,19.26H3.55V8.86H7ZM6.69,6.94a2,2,0,0,1-1.42.52h0a1.94,1.94,0,0,1-1.39-.52,1.72,1.72,0,0,1-.53-1.28,1.67,1.67,0,0,1,.55-1.29A2,2,0,0,1,5.3,3.86a1.9,1.9,0,0,1,1.39.51,1.77,1.77,0,0,1,.54,1.29A1.69,1.69,0,0,1,6.69,6.94ZM19.45,19.26H16V13.7c0-1.57-.58-2.35-1.73-2.35a1.67,1.67,0,0,0-1.11.37,2.28,2.28,0,0,0-.68.89,2.51,2.51,0,0,0-.1.84v5.81H8.91q0-9.41,0-10.4h3.46v1.47a3.47,3.47,0,0,1,3.1-1.71,3.75,3.75,0,0,1,2.89,1.19,5,5,0,0,1,1.09,3.49v6Z"/></g></g></svg>