<svg xmlns="http://www.w3.org/2000/svg" viewBox="0 0 147.78 22.61"><defs><style>.cls-1{fill:#a08a70;}</style></defs><g id="Layer_2" data-name="Layer 2"><g id="Layer_1-2" data-name="Layer 1"><path class="cls-1" d="M11.89,0l2.8,8.64h9.09L16.43,14l2.81,8.63-7.35-5.34L4.54,22.61,7.35,14,0,8.64H9.08Z"/><path class="cls-1" d="M42.89,0l2.8,8.64h9.09L47.43,14l2.81,8.63-7.35-5.34-7.35,5.34L38.35,14,31,8.64h9.08Z"/><path class="cls-1" d="M73.89,0l2.8,8.64h9.09L78.43,14l2.81,8.63-7.35-5.34-7.35,5.34L69.35,14,62,8.64h9.08Z"/><path class="cls-1" d="M104.89,0l2.8,8.64h9.09L109.43,14l2.81,8.63-7.35-5.34-7.35,5.34L100.35,14,93,8.64h9.08Z"/><path class="cls-1" d="M135.89,0l2.8,8.64h9.09L140.43,14l2.81,8.63-7.35-5.34-7.35,5.34L131.35,14,124,8.64h9.08Z"/></g></g></svg>