<svg xmlns="http://www.w3.org/2000/svg" viewBox="0 0 76 71"><defs><style>.cls-1{fill:#1e1e1e;}.cls-2,.cls-3,.cls-4{fill:none;stroke:#1e1e1e;stroke-miterlimit:10;}.cls-2{stroke-width:0.79px;}.cls-3,.cls-4{stroke-linecap:round;}.cls-3{stroke-width:1.57px;}.cls-4{stroke-width:3.14px;}</style></defs><g id="Layer_2" data-name="Layer 2"><g id="Layer_1-2" data-name="Layer 1"><path class="cls-1" d="M33.75.26c1.12,0,1.9.54,1.93,1.68a.06.06,0,0,0,0,.06.58.58,0,0,1,.41.6c0,2.91-.09,21.55-.09,21.55a.28.28,0,0,1-.18.26l-.22.11V25a.06.06,0,0,0,0,.06L66.56,40.31h.08L71,38.14a4.39,4.39,0,0,1,1.91-.46,2.13,2.13,0,0,1,2.29,1.4.88.88,0,0,1,.4.7l.08,10a.45.45,0,0,1-.26.39l-.12.06a.07.07,0,0,0,0,0c0,.92,0,2.14-.1,3.17a3.07,3.07,0,0,1-1.94,2.19L43.42,70.41a2.8,2.8,0,0,1-1.22.33c-2.37,0-2.13-4.73-2.1-5.21a0,0,0,0,0,0-.06L7,49.09H6.92a11.1,11.1,0,0,1-4.29,1.28C1.38,50.37.34,49.82.33,48c0-3,0-20.92,0-28.42a5.09,5.09,0,0,1,3.3-4.94L31.22.94A5.9,5.9,0,0,1,33.75.26Zm0-.26a6.23,6.23,0,0,0-2.68.72L3.45,14.39A5.35,5.35,0,0,0,0,19.56c0,2.55,0,25,0,28.42a2.36,2.36,0,0,0,2.6,2.65A11.14,11.14,0,0,0,7,49.37L39.8,65.63c0,.84-.1,3.76,1.15,4.9A1.83,1.83,0,0,0,42.2,71a3.11,3.11,0,0,0,1.38-.37l22.9-11.34,6.91-3.42a3.22,3.22,0,0,0,2.09-2.39c.08-1,.1-2.21.1-3.07h0a.68.68,0,0,0,.41-.61l-.08-10a1.16,1.16,0,0,0-.43-.84,2.46,2.46,0,0,0-2.56-1.51,4.72,4.72,0,0,0-2.06.49L66.6,40,36,24.86v-.19l.06,0a.53.53,0,0,0,.33-.49c0-.19.07-18.67.09-21.55A.84.84,0,0,0,36,1.81,2,2,0,0,0,33.75,0Z"/><path class="cls-2" d="M35.75,2c-.4-1.8-3.59.14-6.2,1.43-8.28,4.07-23,11.46-24.2,12.07-2,1-3.36,1.79-3.3,5.25C2.1,23.61,2,47.58,2,48.23c0,1,.78,2.93,3.33,1.67"/><path class="cls-2" d="M3.75,40.86l-1.21.6"/><path class="cls-2" d="M35.75,24.55,2.33,41s.13-18.48.18-20.39A4.72,4.72,0,0,1,5.42,15.9L30.12,3.68C32.91,2.41,34.72,1.09,35.9,2"/><path class="cls-2" d="M2,41.15,40.1,60"/><path class="cls-2" d="M2.54,41.46,35.75,25l-1.2.6,31,15.32"/><path class="cls-2" d="M3.14,40.62,2,41.15"/><path class="cls-2" d="M3.75,40.86,40.1,58.92"/><path class="cls-3" d="M40,55.33l-3.6,1.78"/><path class="cls-3" d="M62,42,33.86,55.85"/><path class="cls-3" d="M59.39,40.7,31.3,54.58"/><path class="cls-3" d="M56.85,39.42,28.76,53.31"/><path class="cls-3" d="M54.31,38.14,26.22,52"/><path class="cls-3" d="M51.71,36.9,23.62,50.79"/><path class="cls-3" d="M49.18,35.61,21.09,49.5"/><path class="cls-3" d="M46.65,34.35,18.56,48.24"/><path class="cls-3" d="M44.18,33.06,16.08,47"/><path class="cls-3" d="M41.65,31.82,13.56,45.71"/><path class="cls-3" d="M39.16,30.62,11.07,44.5"/><path class="cls-3" d="M36.67,29.34,8.58,43.22"/><path class="cls-3" d="M40.1,57.83l-1,.58"/><path class="cls-4" d="M21.5,34.35,50,48.49"/><path class="cls-2" d="M75.48,50.19,42.15,66.66l-.31,0"/><path class="cls-2" d="M75.28,39s-.37-1.27-3.2.12c-7,3.44-26.46,13.08-27.83,13.79-1.7.88-2.28,1.79-2.31,4.89,0,.8-.11,9.84-.11,9.84s0,3.65,1.86,2.76"/><path class="cls-2" d="M42.15,66.66s.14-7,.17-8.9.13-3.41,2.12-4.57c3.08-1.6,27.12-13.45,27.83-13.79,1.79-.86,2.37-.78,3.12-.26"/><path class="cls-2" d="M42.15,69.63S72,55,72.38,54.76a2.2,2.2,0,0,0,1.42-1.62A6.27,6.27,0,0,0,73.88,51"/><path class="cls-2" d="M7,49.25,2,46.59"/><path class="cls-4" d="M26.88,37.1v4.07"/><path class="cls-4" d="M49.18,48.11l0,.76"/><path class="cls-4" d="M36.67,42.09v4.08"/><path class="cls-2" d="M40.06,66.58s0-9.12,0-10.95a3.46,3.46,0,0,1,2.21-3.27l24.29-12"/><path class="cls-2" d="M34.55,25.56l.07,4.34L61.08,43.06"/><path class="cls-2" d="M2.37,49.6A10.11,10.11,0,0,0,5.3,48.35"/><path class="cls-2" d="M33,36.08c2.1-1,2.59-1.25,2.64-3.64v-2"/><path class="cls-2" d="M11.8,44.86s18.81-9.16,20.26-9.92,2.08-.83,2.17-2.79c0-.18,0-.39,0-.6l-.12-5.77"/><path class="cls-2" d="M20.9,32.37v2.32l1.72-.85V31.52"/><path class="cls-2" d="M6,42l28.16-13.8"/></g></g></svg>