<svg xmlns="http://www.w3.org/2000/svg" viewBox="0 0 23.73 21.5"><defs><style>.cls-1{fill:none;stroke:#fff;}</style></defs><g id="Layer_2" data-name="Layer 2"><g id="Layer_1-2" data-name="Layer 1"><path class="cls-1" d="M0,.5H3L4.43,4.65M19.5,16.5H8.5l-1.38-4M4.43,4.65H9.07m-4.64,0L5.78,8.57M7.12,12.5h3.3m-3.3,0L5.78,8.57m7.93-3.92V12.5m0-7.85H9.07m4.64,0h4.65M13.71,12.5H10.42m3.29,0h3.15M9.07,4.65l1.35,7.85m7.94-7.85H23L21.5,8.57M18.36,4.65l-1.5,7.85m0,0H20l1.5-3.93m0,0H5.78"/><circle class="cls-1" cx="8.5" cy="19" r="2"/><circle class="cls-1" cx="19.5" cy="18.5" r="2"/></g></g></svg>