<svg xmlns="http://www.w3.org/2000/svg" xmlns:xlink="http://www.w3.org/1999/xlink" viewBox="0 0 88.36 12"><defs><style>.cls-1{fill:none;}.cls-2{clip-path:url(#clip-path);}.cls-3{fill:#fff;}</style><clipPath id="clip-path"><rect class="cls-1" width="88.36" height="12"/></clipPath></defs><g id="Layer_2" data-name="Layer 2"><g id="Layer_1-2" data-name="Layer 1"><g class="cls-2"><path class="cls-3" d="M86.58.43V.25h.7V.43H87v.62h-.26V.43Zm.89-.18.45.37.44-.44v.87h-.25V.74l-.19.18L87.73.74v.37h-.26Z"/><path class="cls-3" d="M50.9.06A6,6,0,0,0,44.79,6,6.12,6.12,0,0,0,57,6,6,6,0,0,0,50.9.06Zm0,9.85A3.8,3.8,0,0,1,47.14,6a3.76,3.76,0,1,1,7.52,0A3.8,3.8,0,0,1,50.9,9.91Z"/><path class="cls-3" d="M33.26.25v11.5h7.39V9.54h-5.1V.25Z"/><path class="cls-3" d="M77.41,11.75h2.35V7.45h4.59v-2H79.76V2.22h4.91v-2H77.41Z"/><path class="cls-3" d="M22.68,0l5.73,11.75H25.8L22.62,5.23l-3.13,6.52H16.88L22.62,0Z"/><path class="cls-3" d="M67,12h-.25a4.76,4.76,0,0,1-4.85-4.68V.25h2.3V7.38a2.44,2.44,0,0,0,2.48,2.4H67a2.44,2.44,0,0,0,2.48-2.4V.25h2.3V7.38A4.56,4.56,0,0,1,67,12Z"/><path class="cls-3" d="M12,0H12V11.75H9.68V5.6l-3.63,4H6l-3.63-4v6.15H0V0H.06L6,6.34Z"/></g></g></g></svg>