<svg xmlns="http://www.w3.org/2000/svg" viewBox="0 0 33.67 15.67"><defs><style>.cls-1{fill:none;stroke:#fff;stroke-miterlimit:10;}</style></defs><g id="Layer_2" data-name="Layer 2"><g id="Layer_1-2" data-name="Layer 1"><path class="cls-1" d="M30.67,5.39H3A2.49,2.49,0,0,1,.5,3,2.49,2.49,0,0,1,3,.5H30.67A2.5,2.5,0,0,1,33.17,3,2.5,2.5,0,0,1,30.67,5.39Z"/><path class="cls-1" d="M30.67,10.28H3A2.49,2.49,0,0,1,.5,7.84,2.49,2.49,0,0,1,3,5.39H30.67a2.5,2.5,0,0,1,2.5,2.45A2.5,2.5,0,0,1,30.67,10.28Z"/><path class="cls-1" d="M30.67,15.17H3a2.45,2.45,0,1,1,0-4.89H30.67a2.45,2.45,0,1,1,0,4.89Z"/></g></g></svg>