<svg xmlns="http://www.w3.org/2000/svg" xmlns:xlink="http://www.w3.org/1999/xlink" viewBox="0 0 35.17 14.13"><defs><style>.cls-1,.cls-3{fill:none;}.cls-2{clip-path:url(#clip-path);}.cls-3{stroke:#fff;stroke-miterlimit:10;}</style><clipPath id="clip-path" transform="translate(0.08 0.06)"><rect class="cls-1" width="35" height="14"/></clipPath></defs><g id="Layer_2" data-name="Layer 2"><g id="Layer_1-2" data-name="Layer 1"><g class="cls-2"><path class="cls-3" d="M33.88,13.58H1.12a.71.71,0,0,1-.7-.72V11.5a.71.71,0,0,1,.7-.72H33.88a.71.71,0,0,1,.71.72v1.36A.71.71,0,0,1,33.88,13.58Z" transform="translate(0.08 0.06)"/><path class="cls-3" d="M34.4,11,26.83,1.06A1.55,1.55,0,0,0,25.58.44H9.44a1.59,1.59,0,0,0-1.25.62L.6,11" transform="translate(0.08 0.06)"/></g></g></g></svg>