<svg xmlns="http://www.w3.org/2000/svg" viewBox="0 0 23.88 26.86"><defs><style>.cls-1{fill:none;stroke:#fff;stroke-miterlimit:10;}</style></defs><g id="Layer_2" data-name="Layer 2"><g id="Layer_1-2" data-name="Layer 1"><path class="cls-1" d="M23.27,5.72a15.92,15.92,0,0,1-11.33-5,15.9,15.9,0,0,1-11.33,5A20.43,20.43,0,0,0,.5,8c0,8.43,4.77,15.63,11.44,18.37C18.61,23.58,23.38,16.38,23.38,8A18.2,18.2,0,0,0,23.27,5.72Z"/><path class="cls-1" d="M19.62,8.62c-3.63-.28-6-2.29-7.68-3.52A15.49,15.49,0,0,1,4.27,8.62a6.77,6.77,0,0,0-.09,1.12c0,5.72,3.24,10.61,7.76,12.45,4.52-1.84,7.76-6.73,7.76-12.45A8.32,8.32,0,0,0,19.62,8.62Z"/></g></g></svg>