<svg xmlns="http://www.w3.org/2000/svg" xmlns:xlink="http://www.w3.org/1999/xlink" viewBox="0 0 33.04 29.05"><defs><style>.cls-1,.cls-3,.cls-4{fill:none;}.cls-2{clip-path:url(#clip-path);}.cls-3,.cls-4{stroke:#fff;stroke-linejoin:round;}.cls-3{stroke-linecap:round;}</style><clipPath id="clip-path" transform="translate(0.02 0.03)"><rect class="cls-1" width="33" height="29"/></clipPath></defs><g id="Layer_2" data-name="Layer 2"><g id="Layer_1-2" data-name="Layer 1"><g class="cls-2"><path class="cls-3" d="M29.93,24.74h2.59" transform="translate(0.02 0.03)"/><path class="cls-4" d="M10.07,24.74H22.45" transform="translate(0.02 0.03)"/><path class="cls-3" d="M.48.47H6.24V20.85" transform="translate(0.02 0.03)"/><path class="cls-4" d="M6.24,5.12H26.09V20.94" transform="translate(0.02 0.03)"/><path class="cls-3" d="M17.94,10.71l-.86-.47-.77.56-1-.66-1.15.57V5.21h3.74Z" transform="translate(0.02 0.03)"/><path class="cls-3" d="M6.24,28.53A3.8,3.8,0,1,0,2.4,24.74,3.82,3.82,0,0,0,6.24,28.53Z" transform="translate(0.02 0.03)"/><path class="cls-3" d="M6.24,26.63a1.9,1.9,0,1,0-1.92-1.89A1.9,1.9,0,0,0,6.24,26.63Z" transform="translate(0.02 0.03)"/><path class="cls-3" d="M26,28.53a3.8,3.8,0,1,0-3.84-3.79A3.81,3.81,0,0,0,26,28.53Z" transform="translate(0.02 0.03)"/><path class="cls-3" d="M26,26.63a1.9,1.9,0,1,0-1.92-1.89A1.91,1.91,0,0,0,26,26.63Z" transform="translate(0.02 0.03)"/><path class="cls-3" d="M10.74,18.39h4.42" transform="translate(0.02 0.03)"/><path class="cls-3" d="M10.74,20.47H14.1" transform="translate(0.02 0.03)"/></g></g></g></svg>