<svg xmlns="http://www.w3.org/2000/svg" viewBox="0 0 186 39"><defs><style>.cls-1{fill:#fff;}</style></defs><g id="Layer_2" data-name="Layer 2"><g id="Layer_1-2" data-name="Layer 1"><path class="cls-1" d="M64.4,36.21v-20c0-4.15-1.82-6.09-5-6.09A6.23,6.23,0,0,0,54,13v-3L45.71,11v2.28h1.9V36.21h-2v2.28h9.84V36.21H54.15V18.7c0-3,.82-4.32,2.31-4.32,1.08,0,1.49.68,1.49,2.37V36.2H56.46v2.29h9.26V36.2H64.4Zm-36.62,0V2.62h1.73V.42H19.84L15.05,21.83,9.92.42H0v2.2H2.07V36.21H0v2.28H7.6V36.21H5.21V12.6l6,25.89h3.48l6-26.05V36.21H18.44v2.28H29.51V36.21ZM81.59,31c0-9-9.42-9.56-9.42-15.48,0-2,1-3,2.56-3,2.39,0,3.64,2.45,3.8,7.61h2.15V11.59a12.16,12.16,0,0,0-6-1.52c-4.38,0-7.93,2.53-7.93,7.7,0,8.45,9.18,9.64,9.18,15.39,0,2.29-1.08,3.39-2.82,3.39-2.64,0-4-2.37-4.13-8.21H66.79v9.14A14.23,14.23,0,0,0,73.32,39C78.12,39,81.59,36.21,81.59,31Zm69.61,5.25V0l-8.52.93v2.2h2.07V36.21h-1.32v2.28h9.75V36.21Zm-45.72,0V2.62h1.9V.42H96.06v2.2h2.31V18.36H91.1V2.62h2.39V.42H82v2.2h2V36.21H82v2.28H93.49V36.21H91.1V21h7.27V36.21H96.06v2.28h11.32V36.21Zm29.18-13.45v8.62c0,2.54-.49,3.56-1.9,3.56-1.07,0-1.57-.93-1.57-4C131.19,25.8,131.6,24.53,134.66,22.76Zm49.52,13.45v-20c0-4.15-1.82-6.09-5-6.09a6.23,6.23,0,0,0-5.46,3V0L165.5.93v2.2h1.9V36.21h-1.32v2.28h9.09V36.21h-1.32V18.7c0-3,.83-4.32,2.31-4.32,1.08,0,1.49.68,1.49,2.37V36.2h-1.49v2.29H186V36.2h-1.82Zm-43.07-18.7c0-5.24-2.31-7.44-7.27-7.44a8,8,0,0,0-8.35,8v1.69h5.7v-4c0-2.28.5-3.13,1.74-3.13s1.73.76,1.73,3.13v4.66c-7.52,2.62-9.84,4.57-9.84,11.08,0,5.07,2,7.53,5.38,7.53,2.89,0,4.21-2,5-3.3v2.79h7.35V36.2h-1.4V17.51ZM160.29,39c3.72,0,5.29-2.37,5.29-5.75V29H163.1v4.23c0,1.77-.25,2.36-1.07,2.36s-1-.5-1-2.11V13.2h4.54V10.58h-4.46V2.71h-2.57l-3.8,8.2h-2.23v2.2h2V31.89C154.5,36.8,155.33,39,160.29,39ZM123.75,29h-2.64V30c0,3.89-1.08,5.75-3.31,5.75-2.56,0-3.8-1.69-3.8-10.58v-.67h10.08C124.08,14,121.85,10,116.23,10S107,15.9,107,25s3.47,14,9.43,14c5.12,0,7.35-3,7.35-9.23Zm-7.52-16c1.24,0,1.82,1,1.82,9h-4C114.16,14,114.82,13,116.23,13ZM45.8,29H43.15V30c0,3.89-1.07,5.75-3.3,5.75C37.28,35.7,36,34,36,25.12v-.67H46.13C46.13,14,43.9,10,38.28,10S29,15.9,29,25s3.47,14,9.42,14c5.13,0,7.36-3,7.36-9.23ZM38.28,13c1.23,0,1.81,1,1.81,9H36C36.21,14,36.87,13,38.28,13ZM63.4,6.34h1.66v4.91h2.06L69,3.47V.34H63.4Z"/></g></g></svg>