<svg xmlns="http://www.w3.org/2000/svg" viewBox="0 0 80.37 98.08"><defs><style>.cls-1{fill:#1e1e1e;}.cls-2,.cls-3,.cls-4{fill:none;stroke:#1e1e1e;stroke-miterlimit:10;}.cls-2{stroke-width:0.79px;}.cls-3,.cls-4{stroke-linecap:round;}.cls-3{stroke-width:1.57px;}.cls-4{stroke-width:3.14px;}</style></defs><g id="Layer_2" data-name="Layer 2"><g id="Layer_1-2" data-name="Layer 1"><path class="cls-1" d="M0,80.39H8.38l.95-3.12L9,77.21,7.55,78.89a1.76,1.76,0,0,1-1.77.72H3.47L5.25,71,7,70.71l.13-.51h-5L2,70.71,3.73,71,2,79.56l-1.86.32Zm12.15-3.92c.36-1.72,1.32-3,2.4-3a1,1,0,0,1,1,1C15.55,76,14.28,76.7,12.15,76.47Zm-.06.53c2.94.13,4.7-.73,4.7-2.43,0-.93-.76-1.6-2-1.6-2.41,0-4.16,2.8-4.16,4.93a2.51,2.51,0,0,0,2.68,2.67A3.41,3.41,0,0,0,16.22,79l-.31-.23a2.81,2.81,0,0,1-1.93.83C12.47,79.59,11.91,78.52,12.09,77Zm7.38,3.55c1,0,1.57-.6,2.45-1.55l.16,0c-.21,1,.05,1.52.78,1.52a4,4,0,0,0,1.86-.67l0-.27c-1.44,0-1.57-.13-1.44-.69l1.39-6.31-.35-.12-.77.92A2.1,2.1,0,0,0,22.16,73c-2.08,0-4.61,2.91-4.61,5.42A1.91,1.91,0,0,0,19.47,80.55Zm.64-1c-.65,0-1.18-.45-1.18-1.54,0-2.16,1.31-4.14,2.75-4.14a1.73,1.73,0,0,1,1.3.7l-.8,3.65C21.2,79.15,20.7,79.5,20.11,79.5Zm5.86.89h1.26l1-4.8A5.77,5.77,0,0,1,30,74.15a1.33,1.33,0,0,0,1,.56.89.89,0,0,0,.88-.91.82.82,0,0,0-.93-.86c-.8,0-1.51.72-2.35,1.84l-.16,0,.4-1.73-.13-.13L26,73.71l0,.38,1.31.35Zm12.09.18a4.47,4.47,0,0,0,2-.67l0-.27c-1.41,0-1.59-.12-1.46-.64l.85-3.54c.37-1.57-.18-2.48-1.47-2.48-.84,0-1.76.7-2.84,1.71l-.16,0L35.38,73l-.13-.13-2.71.84,0,.38,1.31.35-1.32,6h1.26l1.1-5c1.14-.9,1.76-1.26,2.36-1.26.78,0,1.15.51.89,1.61l-.75,3.2a5.77,5.77,0,0,0-.14.85A.73.73,0,0,0,38.06,80.57Zm16.43,0a4.47,4.47,0,0,0,2-.67l0-.27c-1.4,0-1.58-.12-1.45-.64l.86-3.59c.35-1.53-.17-2.43-1.39-2.43-.8,0-1.73.72-2.75,1.7l-.16,0c0-1-.45-1.66-1.44-1.66s-1.81.75-2.82,1.71l-.16,0L47.56,73l-.12-.13-2.71.84,0,.38,1.31.35-1.33,6H46l1.1-5a4.5,4.5,0,0,1,2.31-1.26c.73,0,1,.56.83,1.56l-1.07,4.72h1.26l1.12-5.07a4.41,4.41,0,0,1,2.22-1.21c.76,0,1.06.56.82,1.56l-.75,3.25a5.87,5.87,0,0,0-.15.85A.74.74,0,0,0,54.49,80.57Zm5.59,0c2.51,0,4.35-2.59,4.35-4.91A2.43,2.43,0,0,0,62,73c-2.51,0-4.35,2.59-4.35,4.91A2.43,2.43,0,0,0,60.08,80.57Zm.56-.74c-1,0-1.61-.88-1.61-2.28,0-1.73.91-3.84,2.38-3.84,1,0,1.62.88,1.62,2.28C63,77.72,62.11,79.83,60.64,79.83Zm5,.56H66.9l1-4.8a5.77,5.77,0,0,1,1.68-1.44,1.33,1.33,0,0,0,1,.56.89.89,0,0,0,.88-.91.82.82,0,0,0-.93-.86c-.8,0-1.5.72-2.35,1.84l-.16,0,.4-1.73-.13-.13-2.62.84,0,.38,1.32.35Zm7.47-3.92c.35-1.72,1.31-3,2.4-3a1,1,0,0,1,1,1C76.5,76,75.23,76.7,73.11,76.47ZM73,77c2.95.13,4.71-.73,4.71-2.43,0-.93-.77-1.6-2-1.6-2.42,0-4.16,2.8-4.16,4.93a2.5,2.5,0,0,0,2.67,2.67A3.41,3.41,0,0,0,77.17,79l-.3-.23a2.84,2.84,0,0,1-1.94.83C73.43,79.59,72.87,78.52,73,77Z"/><path class="cls-1" d="M80.22,94.75a.51.51,0,0,0,0-.71L77,90.86a.5.5,0,0,0-.71.71l2.83,2.82-2.83,2.83a.5.5,0,0,0,.71.71Zm-77.35.14h77v-1h-77Z"/><path class="cls-1" d="M37,.21c.9,0,1.53.43,1.55,1.35a0,0,0,0,0,0,0,.47.47,0,0,1,.32.49c0,2.33-.07,17.29-.07,17.29a.23.23,0,0,1-.14.21l-.18.09V20a.09.09,0,0,0,0,.05L63.29,32.35h.06l3.51-1.74a3.55,3.55,0,0,1,1.54-.37,1.72,1.72,0,0,1,1.84,1.13.7.7,0,0,1,.32.56l.06,8a.34.34,0,0,1-.2.31l-.1,0a.05.05,0,0,0,0,0c0,.73,0,1.71-.08,2.54a2.44,2.44,0,0,1-1.56,1.75L44.72,56.51a2.24,2.24,0,0,1-1,.27c-1.9,0-1.7-3.8-1.68-4.19,0,0,0,0,0-.05L15.48,39.4h-.06a9,9,0,0,1-3.45,1c-1,0-1.83-.45-1.84-1.92,0-2.44,0-16.79,0-22.81a4.09,4.09,0,0,1,2.65-4L34.92.76A4.63,4.63,0,0,1,37,.21ZM37,0A5,5,0,0,0,34.8.58l-22.16,11A4.29,4.29,0,0,0,9.87,15.7c0,2,0,20.05,0,22.81A1.89,1.89,0,0,0,12,40.64a8.88,8.88,0,0,0,3.48-1l26.36,13c0,.67-.08,3,.93,3.93a1.42,1.42,0,0,0,1,.38,2.5,2.5,0,0,0,1.11-.3l18.38-9.1,5.55-2.75a2.6,2.6,0,0,0,1.68-1.92c.06-.81.08-1.77.08-2.46h0a.58.58,0,0,0,.33-.5l-.07-8a.88.88,0,0,0-.34-.67A2,2,0,0,0,68.4,30a3.79,3.79,0,0,0-1.66.4l-3.42,1.69L38.72,20V19.8l.06,0a.46.46,0,0,0,.26-.4c0-.15.06-15,.07-17.29a.64.64,0,0,0-.37-.63A1.58,1.58,0,0,0,37,0Z"/><path class="cls-2" d="M38.56,1.58c-.32-1.44-2.88.11-5,1.15C26.94,6,15.15,11.92,14.16,12.42c-1.63.8-2.69,1.43-2.65,4.21,0,2.32-.08,21.56-.08,22.08,0,.82.63,2.35,2.67,1.34"/><path class="cls-2" d="M12.87,32.79l-1,.48"/><path class="cls-2" d="M38.56,19.7,11.74,32.93s.1-14.84.14-16.37a3.79,3.79,0,0,1,2.34-3.8L34,3c2.24-1,3.69-2.08,4.64-1.32"/><path class="cls-2" d="M11.47,33,42.05,48.17"/><path class="cls-2" d="M11.9,33.27,38.56,20l-1,.47,24.83,12.3"/><path class="cls-2" d="M12.39,32.6l-.92.43"/><path class="cls-2" d="M12.87,32.79l29.18,14.5"/><path class="cls-3" d="M42,44.41l-2.9,1.43"/><path class="cls-3" d="M59.59,33.68,37,44.83"/><path class="cls-3" d="M57.53,32.67,35,43.81"/><path class="cls-3" d="M55.5,31.64,33,42.78"/><path class="cls-3" d="M53.46,30.61,30.91,41.76"/><path class="cls-3" d="M51.37,29.62,28.82,40.76"/><path class="cls-3" d="M49.33,28.58,26.79,39.73"/><path class="cls-3" d="M47.31,27.57,24.76,38.72"/><path class="cls-3" d="M45.32,26.54,22.77,37.68"/><path class="cls-3" d="M43.29,25.54,20.75,36.68"/><path class="cls-3" d="M41.3,24.57,18.75,35.72"/><path class="cls-3" d="M39.3,23.55,16.75,34.69"/><path class="cls-3" d="M42.05,46.41l-.84.47"/><path class="cls-4" d="M27.12,27.57,50,38.92"/><path class="cls-2" d="M70.45,40.29,43.69,53.51l-.24,0"/><path class="cls-2" d="M70.29,31.31s-.3-1-2.57.1c-5.64,2.76-21.24,10.51-22.34,11.07-1.36.71-1.83,1.44-1.85,3.93,0,.64-.09,7.89-.09,7.89s0,2.94,1.49,2.22"/><path class="cls-2" d="M43.69,53.51s.12-5.65.14-7.15.1-2.74,1.71-3.67C48,41.41,67.3,31.9,67.87,31.63c1.43-.69,1.9-.64,2.51-.21"/><path class="cls-2" d="M43.69,55.89,68,44a1.76,1.76,0,0,0,1.14-1.3,5.14,5.14,0,0,0,.06-1.73"/><path class="cls-2" d="M15.47,39.53l-4-2.14"/><path class="cls-4" d="M31.44,29.77v3.28"/><path class="cls-4" d="M49.33,38.61l0,.61"/><path class="cls-4" d="M39.3,33.78v3.28"/><path class="cls-2" d="M42,53.44s0-7.32,0-8.79A2.79,2.79,0,0,1,43.82,42l19.5-9.65"/><path class="cls-2" d="M37.6,20.51l0,3.49L58.89,34.56"/><path class="cls-2" d="M11.77,39.81a8.2,8.2,0,0,0,2.35-1"/><path class="cls-2" d="M36.37,29c1.69-.84,2.08-1,2.13-2.92V24.42"/><path class="cls-2" d="M19.33,36s15.11-7.35,16.27-7.95,1.66-.67,1.74-2.25c0-.14,0-.31,0-.48l-.1-4.63"/><path class="cls-2" d="M26.64,26v1.86L28,27.16V25.3"/><path class="cls-2" d="M14.69,33.7l22.6-11.08"/></g></g></svg>