<svg xmlns="http://www.w3.org/2000/svg" xmlns:xlink="http://www.w3.org/1999/xlink" viewBox="0 0 52 6"><defs><style>.cls-1{fill:none;}.cls-2{clip-path:url(#clip-path);}.cls-3{fill:#1a1a1a;}</style><clipPath id="clip-path" transform="translate(0)"><rect class="cls-1" width="52" height="6"/></clipPath></defs><g id="Layer_2" data-name="Layer 2"><g id="Layer_1-2" data-name="Layer 1"><g class="cls-2"><path class="cls-3" d="M15.06.19H14V5.88h3.6v-.5H15.06Z" transform="translate(0)"/><path class="cls-3" d="M18.66.68h1.73v5.2h1V.68h1.81V.21H18.66Z" transform="translate(0)"/><path class="cls-3" d="M30.6.68h2.49V.21H29.55V5.88H30.6V3.29h2.49V2.8H30.6Z" transform="translate(0)"/><path class="cls-3" d="M36.57.19h-1V5.88h3.6v-.5H36.57Z" transform="translate(0)"/><path class="cls-3" d="M47.42.21V.68h1.72v5.2h1V.68H52V.21Z" transform="translate(0)"/><path class="cls-3" d="M4.27,4.11A2.07,2.07,0,0,1,2.08,6,3.09,3.09,0,0,1,0,5.26l.2-.35a2.8,2.8,0,0,0,1.71.61c.83,0,1.33-.36,1.33-1s-.69-1-1.42-1.29S.21,2.59.21,1.68A1.87,1.87,0,0,1,2.3,0,2.52,2.52,0,0,1,4,.55L3.79.93A2.2,2.2,0,0,0,2.4.48c-.69,0-1.15.32-1.15.83s.62.81,1.28,1.07C3.35,2.7,4.27,3.06,4.27,4.11Z" transform="translate(0)"/><path class="cls-3" d="M11.05,4.1l-.16-.43L9.6.17H8.67L8.58.43,7.37,3.67H5.84V4.1H7.21L6.56,5.82h.53l.09-.22.55-1.5h2.2l.64,1.72h1.11ZM7.89,3.67l0-.08L8,3.42l.78-2.09.07-.21.94,2.55Z" transform="translate(0)"/><path class="cls-3" d="M41.87,3.45v0l0,0-.07.2-.16.43L41,5.87h.53l.21-.56.37-1,.06-.15.1-.27V3.81a1.12,1.12,0,0,0,.28.18,2.6,2.6,0,0,0,.47.16,1.64,1.64,0,0,0,.54,0l.2,0A2,2,0,0,0,44.13,4l0,0,.1-.05.08.21L45,5.87h1.12l-.64-1.72-.16-.43L44,.23h-.93l-1,2.54v.06a1.13,1.13,0,0,0-.21-.12A1.79,1.79,0,0,0,41,2.53a1.91,1.91,0,0,0-.78.23L40,2.9l.26.27A1.22,1.22,0,0,1,41.87,3.45ZM44,3.6a.9.9,0,0,1-.75,0,2.71,2.71,0,0,1-.37-.21l-.33-.24,0,0h0l0,0v0l.62-1.67.08-.21.88,2.38Z" transform="translate(0)"/></g></g></g></svg>