<svg xmlns="http://www.w3.org/2000/svg" viewBox="0 0 23.06 23.06"><defs><style>.cls-1{fill-rule:evenodd;}</style></defs><g id="Layer_2" data-name="Layer 2"><g id="Layer_1-2" data-name="Layer 1"><path class="cls-1" d="M21.79,1.27A4.15,4.15,0,0,0,18.74,0H4.32A4.13,4.13,0,0,0,1.27,1.27,4.13,4.13,0,0,0,0,4.32V18.74a4.15,4.15,0,0,0,1.27,3.05,4.13,4.13,0,0,0,3.05,1.27H18.74a4.34,4.34,0,0,0,4.32-4.32V4.32A4.13,4.13,0,0,0,21.79,1.27ZM19.62,11.86H17v9.53H13.06V11.86h-2V8.57h2v-2a4.58,4.58,0,0,1,1-3.2,4.26,4.26,0,0,1,3.27-1.08H20V5.61H18.3c-.56,0-.92.1-1.07.3a1.66,1.66,0,0,0-.24,1V8.57h3Z"/></g></g></svg>