<svg xmlns="http://www.w3.org/2000/svg" viewBox="0 0 23.06 23.06"><defs><style>.cls-1{fill-rule:evenodd;}</style></defs><g id="Layer_2" data-name="Layer 2"><g id="Layer_1-2" data-name="Layer 1"><path class="cls-1" d="M22.19.87A2.86,2.86,0,0,0,20.1,0H3A2.86,2.86,0,0,0,.87.87,2.86,2.86,0,0,0,0,3V20.1a2.86,2.86,0,0,0,.87,2.09A2.86,2.86,0,0,0,3,23.06H20.1a3,3,0,0,0,3-3V3A2.86,2.86,0,0,0,22.19.87ZM8.28,8.31A4.51,4.51,0,0,1,11.54,7a4.5,4.5,0,0,1,3.28,1.31,4.24,4.24,0,0,1,1.36,3.17,4.24,4.24,0,0,1-1.36,3.18A4.5,4.5,0,0,1,11.54,16a4.55,4.55,0,0,1-3.26-1.31,4.24,4.24,0,0,1-1.36-3.18A4.24,4.24,0,0,1,8.28,8.31ZM20.45,19.49a.88.88,0,0,1-.27.65.92.92,0,0,1-.65.26h-16a.91.91,0,0,1-.65-.26.87.87,0,0,1-.26-.65V9.76H4.68a6.42,6.42,0,0,0-.3,2,6.55,6.55,0,0,0,2.11,4.92,7,7,0,0,0,5,2,7.12,7.12,0,0,0,3.61-.94,7,7,0,0,0,2.61-2.52,6.68,6.68,0,0,0,1-3.5,6.42,6.42,0,0,0-.3-2h2v9.73Zm0-13.41a1,1,0,0,1-1,1H16.8a1,1,0,0,1-1-1V3.6a1,1,0,0,1,1-1h2.61a1,1,0,0,1,1,1Z"/></g></g></svg>