<svg xmlns="http://www.w3.org/2000/svg" viewBox="0 0 23.06 23.06"><defs><style>.cls-1{fill-rule:evenodd;}</style></defs><g id="Layer_2" data-name="Layer 2"><g id="Layer_1-2" data-name="Layer 1"><path class="cls-1" d="M21.79,1.27A4.15,4.15,0,0,0,18.74,0H4.32A4.13,4.13,0,0,0,1.27,1.27,4.13,4.13,0,0,0,0,4.32V18.74a4.15,4.15,0,0,0,1.27,3.05,4.13,4.13,0,0,0,3.05,1.27H18.74a4.34,4.34,0,0,0,4.32-4.32V4.32A4.13,4.13,0,0,0,21.79,1.27Zm-4.15,7.6c0,.09,0,.23,0,.41a8.94,8.94,0,0,1-1.49,5,9.37,9.37,0,0,1-1.81,2.06,8.1,8.1,0,0,1-2.52,1.42,9.06,9.06,0,0,1-3.15.54,8.88,8.88,0,0,1-4.84-1.42,6,6,0,0,0,.75.05,6.22,6.22,0,0,0,3.92-1.35,3,3,0,0,1-1.82-.63,3.18,3.18,0,0,1-1.12-1.56,4.28,4.28,0,0,0,.59.06,2.89,2.89,0,0,0,.76-.12A3.22,3.22,0,0,1,5.07,12.2a3,3,0,0,1-.75-2v0a3.72,3.72,0,0,0,1.51.39A3,3,0,0,1,4.46,7.93a3.11,3.11,0,0,1,.43-1.59A9,9,0,0,0,7.78,8.66a8.92,8.92,0,0,0,3.63,1,2.86,2.86,0,0,1-.08-.72,3,3,0,0,1,.93-2.23,3.13,3.13,0,0,1,4.52.07,6.33,6.33,0,0,0,2-.77,3.08,3.08,0,0,1-1.4,1.76,6.71,6.71,0,0,0,1.82-.51A6.12,6.12,0,0,1,17.64,8.87Z"/></g></g></svg>