<svg xmlns="http://www.w3.org/2000/svg" viewBox="0 0 26.9 19.22"><defs><style>.cls-1{fill-rule:evenodd;}</style></defs><g id="Layer_2" data-name="Layer 2"><g id="Layer_1-2" data-name="Layer 1"><path class="cls-1" d="M26.89,7.36c0-.54-.06-1.23-.13-2.05a19.67,19.67,0,0,0-.32-2.22,3.45,3.45,0,0,0-1.05-1.84A3.16,3.16,0,0,0,23.52.38,98.13,98.13,0,0,0,13.45,0,98.13,98.13,0,0,0,3.38.38a3.16,3.16,0,0,0-1.86.87,3.5,3.5,0,0,0-1,1.84A17.4,17.4,0,0,0,.14,5.31C.07,6.13,0,6.82,0,7.36S0,8.65,0,9.61s0,1.71,0,2.25.05,1.22.12,2.05a19.67,19.67,0,0,0,.33,2.21,3.46,3.46,0,0,0,1,1.85,3.19,3.19,0,0,0,1.87.87,98.13,98.13,0,0,0,10.07.38,98,98,0,0,0,10.07-.38A3.16,3.16,0,0,0,25.39,18a3.52,3.52,0,0,0,1-1.85,17.51,17.51,0,0,0,.34-2.21c.07-.83.12-1.51.13-2.05s0-1.29,0-2.25S26.9,7.9,26.89,7.36Zm-8.12,3.06-7.69,4.8a.85.85,0,0,1-.51.15,1.06,1.06,0,0,1-.47-.12.89.89,0,0,1-.49-.84V4.8A.89.89,0,0,1,10.1,4a.91.91,0,0,1,1,0L18.77,8.8a.86.86,0,0,1,.45.81A.86.86,0,0,1,18.77,10.42Z"/></g></g></svg>